# Blender 3.5.1
# www.blender.org
mtllib Shop1.mtl
o Cube
v -9.006928 -6.060473 9.006928
v -7.563924 -5.390990 7.563924
v -9.006928 7.449918 9.006928
v -9.006928 -6.060473 -9.006928
v -7.563924 -5.390990 -7.563924
v -9.006928 7.449918 -9.006928
v 9.006928 -6.060473 9.006928
v 7.563924 -5.390990 7.563924
v 9.006928 7.449918 9.006928
v 9.006928 -6.060473 -9.006928
v 7.563924 -5.390990 -7.563924
v 9.006928 7.449918 -9.006928
v -7.563924 7.449918 7.563924
v 7.563924 7.449918 -7.563924
v -7.563924 7.449918 -7.563924
v 7.563924 7.449918 7.563924
v 9.006928 2.152215 -0.923513
v 9.006928 -1.409580 -4.485309
v 9.006928 2.152215 -4.485309
v 9.006928 -1.409580 -0.923513
v 7.563924 -1.409580 -0.923513
v 7.563924 2.152215 -0.923513
v 7.563924 -1.409580 -4.485309
v 7.563924 2.152215 -4.485309
vn -1.0000 -0.0000 -0.0000
vn -0.0000 -0.0000 -1.0000
vn 1.0000 -0.0000 -0.0000
vn -0.0000 -0.0000 1.0000
vn -0.0000 -1.0000 -0.0000
vn -0.0000 1.0000 -0.0000
vt 0.375000 0.000000
vt 0.375000 1.000000
vt 0.125000 0.750000
vt 0.375000 0.000000
vt 0.375000 1.000000
vt 0.125000 0.750000
vt 0.625000 0.000000
vt 0.625000 1.000000
vt 0.875000 0.750000
vt 0.125000 0.500000
vt 0.375000 0.250000
vt 0.125000 0.500000
vt 0.375000 0.250000
vt 0.625000 0.250000
vt 0.875000 0.500000
vt 0.375000 0.750000
vt 0.375000 0.750000
vt 0.625000 0.750000
vt 0.375000 0.500000
vt 0.375000 0.500000
vt 0.625000 0.500000
vt 0.567157 0.000000
vt 0.854974 0.729974
vt 0.567157 1.000000
vt 0.645026 0.520026
vt 0.567157 0.500000
vt 0.854974 0.520026
vt 0.567157 0.250000
vt 0.645026 0.729974
vt 0.567157 0.750000
vt 0.526970 0.612183
vt 0.625000 0.768833
vt 0.643833 0.750000
vt 0.461061 0.562752
vt 0.375000 0.481167
vt 0.356167 0.500000
vt 0.526970 0.562752
vt 0.625000 0.481167
vt 0.643833 0.500000
vt 0.356167 0.750000
vt 0.461061 0.612183
vt 0.375000 0.768833
vt 0.434580 0.609738
vt 0.375000 0.910453
vt 0.214547 0.750000
vt 0.625000 0.910453
vt 0.487880 0.609738
vt 0.785453 0.750000
vt 0.375000 0.339547
vt 0.434580 0.550877
vt 0.214547 0.500000
vt 0.785453 0.500000
vt 0.487880 0.550877
vt 0.625000 0.339547
s 0
usemtl Material.002
f 3/7/1 4/11/1 1/1/1
f 6/14/2 10/19/2 4/11/2
f 10/19/3 19/37/3 18/34/3
f 9/18/3 7/16/3 17/31/3
f 9/18/4 1/2/4 7/16/4
f 10/19/5 1/3/5 4/10/5
f 3/9/6 16/29/6 13/23/6
f 12/21/6 15/27/6 14/25/6
f 2/4/3 15/28/3 13/22/3
f 5/13/4 14/26/4 15/28/4
f 24/53/1 11/20/1 23/50/1
f 8/17/1 16/30/1 21/43/1
f 2/5/2 16/30/2 8/17/2
f 2/6/6 11/20/6 5/12/6
f 18/35/4 24/54/4 23/49/4
f 17/32/2 21/44/2 22/46/2
f 18/36/6 21/45/6 20/40/6
f 19/39/5 22/48/5 24/52/5
f 3/7/1 6/14/1 4/11/1
f 6/14/2 12/21/2 10/19/2
f 10/19/3 12/21/3 19/37/3
f 17/31/3 19/37/3 12/21/3
f 7/16/3 10/19/3 18/34/3
f 7/16/3 18/34/3 20/41/3
f 17/31/3 12/21/3 9/18/3
f 7/16/3 20/41/3 17/31/3
f 9/18/4 3/8/4 1/2/4
f 10/19/5 7/16/5 1/3/5
f 13/23/6 15/27/6 6/15/6
f 3/9/6 9/18/6 16/29/6
f 13/23/6 6/15/6 3/9/6
f 14/25/6 16/29/6 9/18/6
f 12/21/6 6/15/6 15/27/6
f 14/25/6 9/18/6 12/21/6
f 2/4/3 5/13/3 15/28/3
f 5/13/4 11/20/4 14/26/4
f 24/53/1 14/26/1 11/20/1
f 21/43/1 23/50/1 11/20/1
f 16/30/1 14/26/1 24/53/1
f 16/30/1 24/53/1 22/47/1
f 21/43/1 11/20/1 8/17/1
f 16/30/1 22/47/1 21/43/1
f 2/5/2 13/24/2 16/30/2
f 2/6/6 8/17/6 11/20/6
f 18/35/4 19/38/4 24/54/4
f 17/32/2 20/42/2 21/44/2
f 18/36/6 23/51/6 21/45/6
f 19/39/5 17/33/5 22/48/5
o Cube.003
v 8.070655 -1.454844 -2.519250
v 8.070655 2.249209 -2.519250
v 8.070655 -1.454844 -2.832460
v 8.070655 2.249209 -2.832460
v 8.403504 -1.454844 -2.519250
v 8.403504 2.249209 -2.519250
v 8.403504 -1.454844 -2.832460
v 8.403504 2.249209 -2.832460
vn -1.0000 -0.0000 -0.0000
vn -0.0000 -0.0000 -1.0000
vn 1.0000 -0.0000 -0.0000
vn -0.0000 -0.0000 1.0000
vn -0.0000 -1.0000 -0.0000
vn -0.0000 1.0000 -0.0000
vt 0.375000 0.000000
vt 0.375000 1.000000
vt 0.125000 0.750000
vt 0.625000 0.000000
vt 0.625000 1.000000
vt 0.875000 0.750000
vt 0.125000 0.500000
vt 0.375000 0.250000
vt 0.625000 0.250000
vt 0.875000 0.500000
vt 0.375000 0.750000
vt 0.625000 0.750000
vt 0.375000 0.500000
vt 0.625000 0.500000
s 0
f 26/58/7 27/62/7 25/55/7
f 28/63/8 31/67/8 27/62/8
f 32/68/9 29/65/9 31/67/9
f 30/66/10 25/56/10 29/65/10
f 31/67/11 25/57/11 27/61/11
f 28/64/12 30/66/12 32/68/12
f 26/58/7 28/63/7 27/62/7
f 28/63/8 32/68/8 31/67/8
f 32/68/9 30/66/9 29/65/9
f 30/66/10 26/59/10 25/56/10
f 31/67/11 29/65/11 25/57/11
f 28/64/12 26/60/12 30/66/12
o Cube.004
v 8.070655 0.550340 -0.823541
v 8.070655 0.557235 -4.527586
v 8.070655 0.237131 -0.824124
v 8.070655 0.244026 -4.528170
v 8.403504 0.550340 -0.823541
v 8.403504 0.557235 -4.527586
v 8.403504 0.237131 -0.824124
v 8.403504 0.244026 -4.528170
vn -1.0000 -0.0000 -0.0000
vn -0.0000 -1.0000 -0.0019
vn 1.0000 -0.0000 -0.0000
vn -0.0000 1.0000 0.0019
vn -0.0000 -0.0019 1.0000
vn -0.0000 0.0019 -1.0000
vt 0.375000 0.000000
vt 0.375000 1.000000
vt 0.125000 0.750000
vt 0.625000 0.000000
vt 0.625000 1.000000
vt 0.875000 0.750000
vt 0.125000 0.500000
vt 0.375000 0.250000
vt 0.625000 0.250000
vt 0.875000 0.500000
vt 0.375000 0.750000
vt 0.625000 0.750000
vt 0.375000 0.500000
vt 0.625000 0.500000
s 0
f 34/72/13 35/76/13 33/69/13
f 36/77/14 39/81/14 35/76/14
f 40/82/15 37/79/15 39/81/15
f 38/80/16 33/70/16 37/79/16
f 39/81/17 33/71/17 35/75/17
f 36/78/18 38/80/18 40/82/18
f 34/72/13 36/77/13 35/76/13
f 36/77/14 40/82/14 39/81/14
f 40/82/15 38/80/15 37/79/15
f 38/80/16 34/73/16 33/70/16
f 39/81/17 37/79/17 33/71/17
f 36/78/18 34/74/18 38/80/18
